<svg  version="1.0" xmlns="http://www.w3.org/2000/svg"  width="46.000000pt" height="40.000000pt" viewBox="0 0 73.000000 67.000000"  preserveAspectRatio="xMidYMid meet">  <g transform="translate(0.000000,67.000000) scale(0.050000,-0.050000)" fill="#4b00b3" stroke="none"> <path d="M485 1268 c-289 -106 -464 -479 -366 -778 222 -670 1214 -505 1210 200 -3 431 -436 728 -844 578z m460 -459 c80 -63 93 -89 45 -89 -19 0 -30 -19 -30 -50 0 -27 -9 -50 -20 -50 -11 0 -20 35 -20 77 0 70 -11 86 -104 158 l-104 81 -106 -83 -107 -83 171 -6 c219 -7 223 -44 5 -44 l-165 0 7 -150 6 -150 59 0 c56 0 58 3 58 101 l0 101 75 -6 c74 -6 75 -7 81 -101 4 -67 15 -95 35 -95 16 0 29 -9 29 -21 0 -13 -70 -18 -195 -15 l-195 6 -6 165 c-4 129 -12 165 -35 165 -52 0 -29 28 127 153 l154 122 80 -64 c44 -35 114 -90 155 -122z m55 -245 c0 -31 -117 -128 -138 -115 -31 19 -27 51 5 51 15 0 43 18 63 40 37 41 70 52 70 24z"/> <path d="M680 490 c0 -49 9 -70 30 -70 21 0 30 21 30 70 0 49 -9 70 -30 70 -21 0 -30 -21 -30 -70z"/> </g> </svg> 